<?xml version="1.0" encoding="UTF-8" standalone="no"?>
<!DOCTYPE svg PUBLIC "-//W3C//DTD SVG 1.1//EN" "http://www.w3.org/Graphics/SVG/1.1/DTD/svg11.dtd">
<svg width="100%" height="100%" viewBox="0 0 64 64" version="1.1" xmlns="http://www.w3.org/2000/svg" xmlns:xlink="http://www.w3.org/1999/xlink" xml:space="preserve" xmlns:serif="http://www.serif.com/" style="fill-rule:evenodd;clip-rule:evenodd;stroke-linejoin:round;stroke-miterlimit:2;">
    <g transform="matrix(2.90883,0,0,2.90883,-19.3688,-57.1245)">
        <path d="M12.782,27.865L8.452,27.865L8.452,29.851L12.243,29.851L12.243,31.351L8.452,31.351L8.452,34.972L6.659,34.972L6.659,26.347L12.782,26.347L12.782,27.865Z" style="fill-rule:nonzero;"/>
        <path d="M17.657,31.867L15.823,31.867L15.823,34.972L14.03,34.972L14.03,26.336L17.791,26.336C18.659,26.336 19.35,26.558 19.866,27.004C20.381,27.449 20.639,28.138 20.639,29.072C20.639,30.091 20.381,30.812 19.866,31.234C19.35,31.656 18.614,31.867 17.657,31.867ZM18.5,30.068C18.735,29.861 18.852,29.533 18.852,29.084C18.852,28.634 18.734,28.314 18.497,28.123C18.261,27.931 17.93,27.836 17.504,27.836L15.823,27.836L15.823,30.379L17.504,30.379C17.93,30.379 18.262,30.275 18.5,30.068Z" style="fill-rule:nonzero;"/>
        <path d="M25.127,33.724C25.553,33.724 25.899,33.677 26.164,33.584C26.668,33.404 26.92,33.07 26.92,32.582C26.92,32.297 26.795,32.076 26.545,31.92C26.295,31.767 25.903,31.632 25.368,31.515L24.454,31.31C23.555,31.107 22.934,30.886 22.59,30.648C22.008,30.25 21.717,29.627 21.717,28.779C21.717,28.005 21.998,27.363 22.561,26.851C23.123,26.339 23.95,26.084 25.039,26.084C25.95,26.084 26.726,26.325 27.369,26.807C28.011,27.29 28.348,27.99 28.379,28.908L26.645,28.908C26.614,28.388 26.387,28.019 25.965,27.8C25.684,27.656 25.334,27.584 24.916,27.584C24.452,27.584 24.08,27.677 23.803,27.865C23.526,28.052 23.387,28.314 23.387,28.65C23.387,28.959 23.524,29.189 23.797,29.341C23.973,29.443 24.348,29.562 24.922,29.699L26.411,30.056C27.063,30.213 27.555,30.422 27.887,30.683C28.403,31.089 28.661,31.677 28.661,32.447C28.661,33.236 28.359,33.891 27.755,34.413C27.152,34.934 26.299,35.195 25.198,35.195C24.073,35.195 23.188,34.938 22.543,34.424C21.899,33.911 21.577,33.205 21.577,32.306L23.299,32.306C23.354,32.701 23.461,32.996 23.621,33.191C23.914,33.547 24.416,33.724 25.127,33.724Z" style="fill-rule:nonzero;"/>
    </g>
</svg>
